<svg viewBox="0 0 109 109" width="120" height="120" class="stroke-svg">
<g id="kvg:StrokePaths_05200" style="fill:none;stroke:#000000;stroke-width:3;stroke-linecap:round;stroke-linejoin:round;">
<g id="kvg:05200"  >
	<path id="kvg:05200-s1"  d="M23.34,27.56c2.19,0.76,4.95,0.62,6.87,0.41c15.78-1.72,41.52-5.94,50.19-6.72c5.64-0.51,8.15,2.77,7.83,6.31c-0.83,9.35-7.98,45.4-15.67,56.15C67,91.5,63.75,89,59.54,83.94"/>
	<path id="kvg:05200-s2"  d="M49.81,29.06c0.7,2.01,0.74,3.8,0.37,5.63C46.59,52,36.12,73,16.62,86.88"/>
</g>
</g>
<g id="kvg:StrokeNumbers_05200" style="font-size:8;fill:#808080">
	<text transform="matrix(1 0 0 1 16.50 28.50)">1</text>
	<text transform="matrix(1 0 0 1 41.50 38.50)">2</text>
</g>
</svg>